PathFileType	4	(X/Y/Z)	s06c0403.trc
DataRate	CameraRate	NumFrames	NumMarkers	Units	OrigDataRate	OrigDataStartFrame	OrigNumFrames
200	200	4	48	mm	200	250	2000
Frame#	Time	racr			lacr			c7			jug			rlel			rdr			llel			ldr			s2			lic			ric			lasi			rasi			rpsi			lpsi			rgt			lgt			rth1			rth2			rth3			rth4			rlfc			rmfc			rsh1			rsh2			rsh3			rsh4			rlmal			rcal			rtoe			rmt5			lth1			lth2			lth4			lth3			llfc			lmfc			llmal			lcal			lmt5			lsh1			lsh2			lsh3			lsh4			ltoe			SBIKE			LBIKE			RBIKE			
		X1	Y1	Z1	X2	Y2	Z2	X3	Y3	Z3	X4	Y4	Z4	X5	Y5	Z5	X6	Y6	Z6	X7	Y7	Z7	X8	Y8	Z8	X9	Y9	Z9	X10	Y10	Z10	X11	Y11	Z11	X12	Y12	Z12	X13	Y13	Z13	X14	Y14	Z14	X15	Y15	Z15	X16	Y16	Z16	X17	Y17	Z17	X18	Y18	Z18	X19	Y19	Z19	X20	Y20	Z20	X21	Y21	Z21	X22	Y22	Z22	X23	Y23	Z23	X24	Y24	Z24	X25	Y25	Z25	X26	Y26	Z26	X27	Y27	Z27	X28	Y28	Z28	X29	Y29	Z29	X30	Y30	Z30	X31	Y31	Z31	X32	Y32	Z32	X33	Y33	Z33	X34	Y34	Z34	X35	Y35	Z35	X36	Y36	Z36	X37	Y37	Z37	X38	Y38	Z38	X39	Y39	Z39	X40	Y40	Z40	X41	Y41	Z41	X42	Y42	Z42	X43	Y43	Z43	X44	Y44	Z44	X45	Y45	Z45	X46	Y46	Z46	X47	Y47	Z47	X48	Y48	Z48	
250	1.2500	493.986088	1296.709544	-54.669574	502.293274	1290.286310	-390.461901	474.086233	1397.601560	-220.812420	504.890668	1235.986891	-213.624410	462.614975	1031.979404	42.383642	664.725143	937.872277	-37.572809	456.986685	1032.359565	-479.929113	631.132478	833.546463	-431.413127	-28.465033	1153.175201	-232.696905	149.152061	1085.404245	-389.641349	122.623790	1104.471380	-56.226132	150.230483	1020.882591	-359.851033	133.784469	1045.234275	-83.310456	8.119222	1184.469799	-199.962104	10.133041	1181.222578	-261.139718	80.310415	1061.775558	-20.973347	95.179342	1025.589316	-423.339092	176.023767	987.102936	-26.693862	261.054826	955.786054	-32.336251	317.090515	889.414192	-34.332989	278.128538	983.655719	-52.314205	379.370870	800.239146	-55.836526	371.910301	772.127839	-164.882155	345.584388	682.434840	-27.062964	337.802080	596.312634	-43.702450	291.430607	522.982228	-42.981676	358.346187	592.579152	-77.690825	256.215245	444.213055	-44.169991	192.224654	411.649445	-90.191961	468.573179	401.624772	-99.638717	374.597149	378.229681	-26.345229	133.052240	912.594910	-432.124616	199.975547	857.393059	-423.301438	228.745481	878.406685	-410.947415	230.165507	773.646515	-414.827956	257.083072	665.177404	-384.533622	250.436883	652.673604	-266.827146	2.406267	391.156993	-377.657411	-74.706649	400.951372	-331.468830	76.375437	272.123154	-397.560361	192.648675	580.598549	-406.624182	149.536318	507.810865	-384.996874	74.994363	459.557138	-387.406369	166.595688	496.156286	-350.646785	153.562209	237.082328	-336.999461	-204.179687	864.982301	-211.489738	-50.900242	80.085061	-411.231448	-50.855744	79.989185	-13.846378	
251	1.2550	495.512400	1295.425128	-53.945356	503.823771	1289.216328	-390.056517	475.788451	1396.463269	-220.428570	506.233063	1234.663420	-213.349729	462.570338	1030.340238	42.151015	664.098359	938.055717	-37.460360	456.515208	1031.802168	-479.945471	631.158144	833.405696	-431.524528	-27.317472	1153.523625	-232.597514	149.966260	1085.807649	-389.727510	123.718058	1104.220281	-57.195187	150.818788	1021.116611	-360.013570	134.188418	1044.861871	-84.289615	9.340735	1184.855735	-199.885914	11.283737	1181.524715	-260.974578	81.735361	1061.663626	-21.122708	95.949688	1026.304617	-423.397228	176.927461	986.071348	-26.758941	261.726736	954.052442	-32.442054	317.182130	887.209558	-34.447091	279.116928	981.838751	-52.295133	378.975456	797.491262	-55.818311	371.152893	769.270075	-164.504207	345.269608	679.707554	-27.007352	338.153734	593.436445	-43.528278	291.699960	520.039180	-42.939949	358.355310	589.905055	-77.666277	256.320946	441.487130	-44.122567	192.101820	407.226948	-91.534266	468.820416	400.093289	-99.439485	374.934519	376.134657	-26.197616	133.832310	913.551712	-432.272991	200.968049	858.531709	-423.692848	229.643843	879.514626	-411.278435	231.367656	774.867403	-415.407835	258.631245	666.031829	-384.595765	252.193293	653.829818	-266.878943	2.853529	392.935472	-377.591955	-74.451965	403.236507	-331.283540	76.035374	273.902612	-397.443410	193.971861	581.678383	-406.590013	150.362036	509.199543	-385.040571	75.546825	461.344147	-387.564256	167.372985	497.550403	-350.774969	153.080870	238.383198	-337.045867	-204.076330	865.003104	-211.484045	-50.915308	80.065480	-411.183251	-50.792047	79.917292	-13.849979	
252	1.2600	497.132036	1293.739669	-53.839988	505.320370	1288.129299	-389.632618	477.507653	1395.346044	-220.009654	507.588838	1233.474265	-213.070701	461.473972	1029.615634	43.093359	663.439480	938.111814	-37.268609	456.100842	1031.225264	-480.068268	631.028686	833.171433	-431.682649	-26.219283	1153.950798	-232.537383	150.631207	1086.236420	-389.952840	124.809144	1104.107873	-57.206706	151.336680	1021.370463	-360.019688	135.438544	1044.901472	-84.570639	10.574360	1185.233937	-199.718902	12.414459	1181.886075	-260.889056	83.280114	1061.422370	-21.400733	96.627724	1026.986878	-423.600737	177.936520	985.209658	-26.990519	262.386350	952.348509	-32.457297	317.320486	885.036323	-34.517317	280.064877	980.003711	-52.304022	378.647821	794.892343	-55.700173	370.486211	766.634304	-164.118403	345.022098	677.171072	-26.875760	338.213199	590.808938	-43.378738	291.977325	517.248295	-42.884406	358.341876	587.398039	-77.590874	256.440890	439.007090	-44.084895	192.247060	404.419787	-91.350253	469.064553	398.428759	-99.334795	375.245510	374.103542	-26.097189	134.586074	914.416611	-432.481141	201.905366	859.571742	-424.109787	230.541612	880.721671	-411.590781	232.552777	776.009437	-415.925961	260.056275	666.957730	-384.848562	253.824798	655.092707	-267.027989	3.153412	394.760257	-377.484294	-74.308222	405.510428	-331.215766	75.622451	275.639040	-397.381106	195.111918	582.779292	-406.622167	151.049554	510.528780	-385.107316	76.005056	463.028675	-387.654276	167.876422	498.580292	-350.613229	152.644078	239.782540	-336.999327	-203.985285	865.016988	-211.473962	-50.893954	80.110013	-411.220757	-50.853627	79.999839	-13.829852	
253	1.2650	498.723077	1292.048176	-53.795041	506.831113	1286.861573	-389.212370	479.266198	1394.314971	-219.553089	508.962245	1232.311373	-212.789718	460.824844	1028.479294	43.545141	662.745416	938.072304	-37.025169	455.676032	1030.657331	-480.279957	630.976393	833.167428	-431.666351	-25.110395	1154.400453	-232.447651	151.391752	1086.591882	-390.199293	125.837493	1103.977019	-57.329035	151.971424	1021.718833	-360.267493	136.488108	1044.875004	-84.909493	11.616782	1185.611625	-199.582168	13.570379	1182.275132	-260.900650	84.730167	1061.261547	-21.666376	97.283207	1027.566107	-423.818530	178.985446	984.354850	-27.073572	263.187446	950.787944	-32.466215	317.517260	883.030521	-34.469959	281.119845	978.345506	-52.201862	378.406156	792.377092	-55.228437	369.887481	764.194983	-163.741936	344.782216	674.681157	-26.724017	338.300501	588.312416	-43.242368	292.211832	514.610419	-42.836391	358.329692	585.024046	-77.546536	256.621293	436.640279	-44.090556	192.434166	402.042936	-91.123788	469.360408	396.632947	-99.236490	375.597241	372.082555	-25.976795	135.347321	915.214887	-432.665724	202.827333	860.540168	-424.521341	231.412633	881.683563	-411.982226	233.735818	777.026655	-416.273383	261.299481	667.905189	-385.017987	255.050227	656.134106	-267.142091	3.169114	396.620436	-377.401119	-74.363860	407.730382	-331.050478	75.254920	277.430632	-397.265415	196.208075	583.659099	-406.794449	151.646130	511.739135	-385.110980	76.292630	464.771657	-387.657558	168.349651	499.811720	-350.424085	152.198852	241.368077	-336.970744	-203.941399	865.009092	-211.490133	-50.884798	80.076664	-411.218325	-50.838125	79.979572	-13.824304	
